<svg width="375" height="84" viewBox="0 0 375 84" fill="none" xmlns="http://www.w3.org/2000/svg">
<g filter="url(#filter0_d_3_2398)">
<path d="M0 36C0 22.7452 10.7452 12 24 12H351C364.255 12 375 22.7452 375 36V84H0V36Z" fill="white"/>
</g>
<g opacity="0.9">
<path d="M35.02 26.8399L29.63 31.0399C28.73 31.7399 28 33.2299 28 34.3599V41.7699C28 44.0899 29.89 45.9899 32.21 45.9899H43.79C46.11 45.9899 48 44.0899 48 41.7799V34.4999C48 33.2899 47.19 31.7399 46.2 31.0499L40.02 26.7199C38.62 25.7399 36.37 25.7899 35.02 26.8399Z" stroke="#292D32" stroke-width="1.5" stroke-linecap="round" stroke-linejoin="round"/>
<path d="M38 41.99V38.99" stroke="#292D32" stroke-width="1.5" stroke-linecap="round" stroke-linejoin="round"/>
</g>
<path opacity="0.9" d="M27.93 56.355V64H26.676V60.656H23.079V64H21.825V56.355H23.079V59.633H26.676V56.355H27.93ZM32.2099 64.099C31.6379 64.099 31.1209 63.9707 30.6589 63.714C30.1969 63.45 29.8339 63.0833 29.5699 62.614C29.3059 62.1373 29.1739 61.5873 29.1739 60.964C29.1739 60.348 29.3095 59.8017 29.5809 59.325C29.8522 58.8483 30.2225 58.4817 30.6919 58.225C31.1612 57.9683 31.6855 57.84 32.2649 57.84C32.8442 57.84 33.3685 57.9683 33.8379 58.225C34.3072 58.4817 34.6775 58.8483 34.9489 59.325C35.2202 59.8017 35.3559 60.348 35.3559 60.964C35.3559 61.58 35.2165 62.1263 34.9379 62.603C34.6592 63.0797 34.2779 63.45 33.7939 63.714C33.3172 63.9707 32.7892 64.099 32.2099 64.099ZM32.2099 63.01C32.5325 63.01 32.8332 62.933 33.1119 62.779C33.3979 62.625 33.6289 62.394 33.8049 62.086C33.9809 61.778 34.0689 61.404 34.0689 60.964C34.0689 60.524 33.9845 60.1537 33.8159 59.853C33.6472 59.545 33.4235 59.314 33.1449 59.16C32.8662 59.006 32.5655 58.929 32.2429 58.929C31.9202 58.929 31.6195 59.006 31.3409 59.16C31.0695 59.314 30.8532 59.545 30.6919 59.853C30.5305 60.1537 30.4499 60.524 30.4499 60.964C30.4499 61.6167 30.6149 62.1227 30.9449 62.482C31.2822 62.834 31.7039 63.01 32.2099 63.01ZM43.9325 57.84C44.4092 57.84 44.8345 57.939 45.2085 58.137C45.5898 58.335 45.8868 58.6283 46.0995 59.017C46.3195 59.4057 46.4295 59.875 46.4295 60.425V64H45.1865V60.612C45.1865 60.0693 45.0508 59.655 44.7795 59.369C44.5082 59.0757 44.1378 58.929 43.6685 58.929C43.1992 58.929 42.8252 59.0757 42.5465 59.369C42.2752 59.655 42.1395 60.0693 42.1395 60.612V64H40.8965V60.612C40.8965 60.0693 40.7608 59.655 40.4895 59.369C40.2182 59.0757 39.8478 58.929 39.3785 58.929C38.9092 58.929 38.5352 59.0757 38.2565 59.369C37.9852 59.655 37.8495 60.0693 37.8495 60.612V64H36.5955V57.939H37.8495V58.632C38.0548 58.3827 38.3152 58.1883 38.6305 58.049C38.9458 57.9097 39.2832 57.84 39.6425 57.84C40.1265 57.84 40.5592 57.9427 40.9405 58.148C41.3218 58.3533 41.6152 58.6503 41.8205 59.039C42.0038 58.6723 42.2898 58.3827 42.6785 58.17C43.0672 57.95 43.4852 57.84 43.9325 57.84ZM53.5802 60.821C53.5802 61.0483 53.5655 61.2537 53.5362 61.437H48.9052C48.9419 61.921 49.1215 62.3097 49.4442 62.603C49.7669 62.8963 50.1629 63.043 50.6322 63.043C51.3069 63.043 51.7835 62.7607 52.0622 62.196H53.4152C53.2319 62.7533 52.8982 63.2117 52.4142 63.571C51.9375 63.923 51.3435 64.099 50.6322 64.099C50.0529 64.099 49.5322 63.9707 49.0702 63.714C48.6155 63.45 48.2562 63.0833 47.9922 62.614C47.7355 62.1373 47.6072 61.5873 47.6072 60.964C47.6072 60.3407 47.7319 59.7943 47.9812 59.325C48.2379 58.8483 48.5935 58.4817 49.0482 58.225C49.5102 57.9683 50.0382 57.84 50.6322 57.84C51.2042 57.84 51.7139 57.9647 52.1612 58.214C52.6085 58.4633 52.9569 58.8153 53.2062 59.27C53.4555 59.7173 53.5802 60.2343 53.5802 60.821ZM52.2712 60.425C52.2639 59.963 52.0989 59.5927 51.7762 59.314C51.4535 59.0353 51.0539 58.896 50.5772 58.896C50.1445 58.896 49.7742 59.0353 49.4662 59.314C49.1582 59.5853 48.9749 59.9557 48.9162 60.425H52.2712Z" fill="black" fill-opacity="0.8"/>
<path opacity="0.9" d="M92.322 56.355C93.136 56.355 93.8473 56.5127 94.456 56.828C95.072 57.136 95.545 57.5833 95.875 58.17C96.2123 58.7493 96.381 59.4277 96.381 60.205C96.381 60.9823 96.2123 61.657 95.875 62.229C95.545 62.801 95.072 63.241 94.456 63.549C93.8473 63.8497 93.136 64 92.322 64H89.825V56.355H92.322ZM92.322 62.977C93.2167 62.977 93.9023 62.735 94.379 62.251C94.8557 61.767 95.094 61.085 95.094 60.205C95.094 59.3177 94.8557 58.6247 94.379 58.126C93.9023 57.6273 93.2167 57.378 92.322 57.378H91.079V62.977H92.322ZM98.2618 57.136C98.0345 57.136 97.8438 57.059 97.6898 56.905C97.5358 56.751 97.4588 56.5603 97.4588 56.333C97.4588 56.1057 97.5358 55.915 97.6898 55.761C97.8438 55.607 98.0345 55.53 98.2618 55.53C98.4818 55.53 98.6688 55.607 98.8228 55.761C98.9768 55.915 99.0538 56.1057 99.0538 56.333C99.0538 56.5603 98.9768 56.751 98.8228 56.905C98.6688 57.059 98.4818 57.136 98.2618 57.136ZM98.8778 57.939V64H97.6238V57.939H98.8778ZM102.724 64.099C102.248 64.099 101.819 64.0147 101.437 63.846C101.063 63.67 100.766 63.4353 100.546 63.142C100.326 62.8413 100.209 62.5077 100.194 62.141H101.492C101.514 62.3977 101.635 62.614 101.855 62.79C102.083 62.9587 102.365 63.043 102.702 63.043C103.054 63.043 103.326 62.977 103.516 62.845C103.714 62.7057 103.813 62.5297 103.813 62.317C103.813 62.0897 103.703 61.921 103.483 61.811C103.271 61.701 102.93 61.58 102.46 61.448C102.006 61.3233 101.635 61.2023 101.349 61.085C101.063 60.9677 100.814 60.788 100.601 60.546C100.396 60.304 100.293 59.985 100.293 59.589C100.293 59.2663 100.389 58.973 100.579 58.709C100.77 58.4377 101.041 58.225 101.393 58.071C101.753 57.917 102.163 57.84 102.625 57.84C103.315 57.84 103.868 58.016 104.286 58.368C104.712 58.7127 104.939 59.1857 104.968 59.787H103.714C103.692 59.5157 103.582 59.2993 103.384 59.138C103.186 58.9767 102.919 58.896 102.581 58.896C102.251 58.896 101.998 58.9583 101.822 59.083C101.646 59.2077 101.558 59.3727 101.558 59.578C101.558 59.7393 101.617 59.875 101.734 59.985C101.852 60.095 101.995 60.183 102.163 60.249C102.332 60.3077 102.581 60.3847 102.911 60.48C103.351 60.5973 103.711 60.7183 103.989 60.843C104.275 60.9603 104.521 61.1363 104.726 61.371C104.932 61.6057 105.038 61.9173 105.045 62.306C105.045 62.6507 104.95 62.9587 104.759 63.23C104.569 63.5013 104.297 63.714 103.945 63.868C103.601 64.022 103.194 64.099 102.724 64.099ZM105.982 60.964C105.982 60.3407 106.107 59.7943 106.356 59.325C106.613 58.8483 106.965 58.4817 107.412 58.225C107.86 57.9683 108.373 57.84 108.952 57.84C109.686 57.84 110.291 58.016 110.767 58.368C111.251 58.7127 111.578 59.2077 111.746 59.853H110.393C110.283 59.5523 110.107 59.3177 109.865 59.149C109.623 58.9803 109.319 58.896 108.952 58.896C108.439 58.896 108.028 59.0793 107.72 59.446C107.42 59.8053 107.269 60.3113 107.269 60.964C107.269 61.6167 107.42 62.1263 107.72 62.493C108.028 62.8597 108.439 63.043 108.952 63.043C109.678 63.043 110.159 62.724 110.393 62.086H111.746C111.57 62.702 111.24 63.1933 110.756 63.56C110.272 63.9193 109.671 64.099 108.952 64.099C108.373 64.099 107.86 63.9707 107.412 63.714C106.965 63.45 106.613 63.0833 106.356 62.614C106.107 62.1373 105.982 61.5873 105.982 60.964ZM115.625 64.099C115.053 64.099 114.536 63.9707 114.074 63.714C113.612 63.45 113.249 63.0833 112.985 62.614C112.721 62.1373 112.589 61.5873 112.589 60.964C112.589 60.348 112.725 59.8017 112.996 59.325C113.267 58.8483 113.638 58.4817 114.107 58.225C114.576 57.9683 115.101 57.84 115.68 57.84C116.259 57.84 116.784 57.9683 117.253 58.225C117.722 58.4817 118.093 58.8483 118.364 59.325C118.635 59.8017 118.771 60.348 118.771 60.964C118.771 61.58 118.632 62.1263 118.353 62.603C118.074 63.0797 117.693 63.45 117.209 63.714C116.732 63.9707 116.204 64.099 115.625 64.099ZM115.625 63.01C115.948 63.01 116.248 62.933 116.527 62.779C116.813 62.625 117.044 62.394 117.22 62.086C117.396 61.778 117.484 61.404 117.484 60.964C117.484 60.524 117.4 60.1537 117.231 59.853C117.062 59.545 116.839 59.314 116.56 59.16C116.281 59.006 115.981 58.929 115.658 58.929C115.335 58.929 115.035 59.006 114.756 59.16C114.485 59.314 114.268 59.545 114.107 59.853C113.946 60.1537 113.865 60.524 113.865 60.964C113.865 61.6167 114.03 62.1227 114.36 62.482C114.697 62.834 115.119 63.01 115.625 63.01ZM122.354 62.878L124.07 57.939H125.401L123.091 64H121.595L119.296 57.939H120.638L122.354 62.878ZM131.903 60.821C131.903 61.0483 131.889 61.2537 131.859 61.437H127.228C127.265 61.921 127.445 62.3097 127.767 62.603C128.09 62.8963 128.486 63.043 128.955 63.043C129.63 63.043 130.107 62.7607 130.385 62.196H131.738C131.555 62.7533 131.221 63.2117 130.737 63.571C130.261 63.923 129.667 64.099 128.955 64.099C128.376 64.099 127.855 63.9707 127.393 63.714C126.939 63.45 126.579 63.0833 126.315 62.614C126.059 62.1373 125.93 61.5873 125.93 60.964C125.93 60.3407 126.055 59.7943 126.304 59.325C126.561 58.8483 126.917 58.4817 127.371 58.225C127.833 57.9683 128.361 57.84 128.955 57.84C129.527 57.84 130.037 57.9647 130.484 58.214C130.932 58.4633 131.28 58.8153 131.529 59.27C131.779 59.7173 131.903 60.2343 131.903 60.821ZM130.594 60.425C130.587 59.963 130.422 59.5927 130.099 59.314C129.777 59.0353 129.377 58.896 128.9 58.896C128.468 58.896 128.097 59.0353 127.789 59.314C127.481 59.5853 127.298 59.9557 127.239 60.425H130.594ZM134.392 58.819C134.575 58.511 134.817 58.2727 135.118 58.104C135.426 57.928 135.789 57.84 136.207 57.84V59.138H135.888C135.396 59.138 135.022 59.2627 134.766 59.512C134.516 59.7613 134.392 60.194 134.392 60.81V64H133.138V57.939H134.392V58.819Z" fill="black" fill-opacity="0.8"/>
<path opacity="0.9" d="M181.344 73.077C180.831 73.077 180.369 72.989 179.958 72.813C179.547 72.6297 179.225 72.373 178.99 72.043C178.755 71.713 178.638 71.328 178.638 70.888H179.98C180.009 71.218 180.138 71.4893 180.365 71.702C180.6 71.9147 180.926 72.021 181.344 72.021C181.777 72.021 182.114 71.9183 182.356 71.713C182.598 71.5003 182.719 71.229 182.719 70.899C182.719 70.6423 182.642 70.4333 182.488 70.272C182.341 70.1107 182.154 69.986 181.927 69.898C181.707 69.81 181.399 69.7147 181.003 69.612C180.504 69.48 180.097 69.348 179.782 69.216C179.474 69.0767 179.21 68.864 178.99 68.578C178.77 68.292 178.66 67.9107 178.66 67.434C178.66 66.994 178.77 66.609 178.99 66.279C179.21 65.949 179.518 65.696 179.914 65.52C180.31 65.344 180.768 65.256 181.289 65.256C182.03 65.256 182.635 65.443 183.104 65.817C183.581 66.1837 183.845 66.6897 183.896 67.335H182.51C182.488 67.0563 182.356 66.818 182.114 66.62C181.872 66.422 181.553 66.323 181.157 66.323C180.798 66.323 180.504 66.4147 180.277 66.598C180.05 66.7813 179.936 67.0453 179.936 67.39C179.936 67.6247 180.006 67.819 180.145 67.973C180.292 68.1197 180.475 68.237 180.695 68.325C180.915 68.413 181.216 68.5083 181.597 68.611C182.103 68.7503 182.514 68.8897 182.829 69.029C183.152 69.1683 183.423 69.3847 183.643 69.678C183.87 69.964 183.984 70.349 183.984 70.833C183.984 71.2217 183.878 71.5883 183.665 71.933C183.46 72.2777 183.155 72.5563 182.752 72.769C182.356 72.9743 181.887 73.077 181.344 73.077ZM191.019 69.821C191.019 70.0483 191.004 70.2537 190.975 70.437H186.344C186.38 70.921 186.56 71.3097 186.883 71.603C187.205 71.8963 187.601 72.043 188.071 72.043C188.745 72.043 189.222 71.7607 189.501 71.196H190.854C190.67 71.7533 190.337 72.2117 189.853 72.571C189.376 72.923 188.782 73.099 188.071 73.099C187.491 73.099 186.971 72.9707 186.509 72.714C186.054 72.45 185.695 72.0833 185.431 71.614C185.174 71.1373 185.046 70.5873 185.046 69.964C185.046 69.3407 185.17 68.7943 185.42 68.325C185.676 67.8483 186.032 67.4817 186.487 67.225C186.949 66.9683 187.477 66.84 188.071 66.84C188.643 66.84 189.152 66.9647 189.6 67.214C190.047 67.4633 190.395 67.8153 190.645 68.27C190.894 68.7173 191.019 69.2343 191.019 69.821ZM189.71 69.425C189.702 68.963 189.537 68.5927 189.215 68.314C188.892 68.0353 188.492 67.896 188.016 67.896C187.583 67.896 187.213 68.0353 186.905 68.314C186.597 68.5853 186.413 68.9557 186.355 69.425H189.71ZM193.507 64.86V73H192.253V64.86H193.507ZM196.407 64.86V73H195.153V64.86H196.407Z" fill="black" fill-opacity="0.8"/>
<path opacity="0.9" d="M326.171 58.632C326.171 59.0207 326.079 59.3873 325.896 59.732C325.713 60.0767 325.419 60.359 325.016 60.579C324.613 60.7917 324.096 60.898 323.465 60.898H322.079V64H320.825V56.355H323.465C324.052 56.355 324.547 56.4577 324.95 56.663C325.361 56.861 325.665 57.1323 325.863 57.477C326.068 57.8217 326.171 58.2067 326.171 58.632ZM323.465 59.875C323.942 59.875 324.297 59.7687 324.532 59.556C324.767 59.336 324.884 59.028 324.884 58.632C324.884 57.796 324.411 57.378 323.465 57.378H322.079V59.875H323.465ZM328.621 58.819C328.804 58.511 329.046 58.2727 329.347 58.104C329.655 57.928 330.018 57.84 330.436 57.84V59.138H330.117C329.626 59.138 329.252 59.2627 328.995 59.512C328.746 59.7613 328.621 60.194 328.621 60.81V64H327.367V57.939H328.621V58.819ZM334.218 64.099C333.646 64.099 333.129 63.9707 332.667 63.714C332.205 63.45 331.842 63.0833 331.578 62.614C331.314 62.1373 331.182 61.5873 331.182 60.964C331.182 60.348 331.317 59.8017 331.589 59.325C331.86 58.8483 332.23 58.4817 332.7 58.225C333.169 57.9683 333.693 57.84 334.273 57.84C334.852 57.84 335.376 57.9683 335.846 58.225C336.315 58.4817 336.685 58.8483 336.957 59.325C337.228 59.8017 337.364 60.348 337.364 60.964C337.364 61.58 337.224 62.1263 336.946 62.603C336.667 63.0797 336.286 63.45 335.802 63.714C335.325 63.9707 334.797 64.099 334.218 64.099ZM334.218 63.01C334.54 63.01 334.841 62.933 335.12 62.779C335.406 62.625 335.637 62.394 335.813 62.086C335.989 61.778 336.077 61.404 336.077 60.964C336.077 60.524 335.992 60.1537 335.824 59.853C335.655 59.545 335.431 59.314 335.153 59.16C334.874 59.006 334.573 58.929 334.251 58.929C333.928 58.929 333.627 59.006 333.349 59.16C333.077 59.314 332.861 59.545 332.7 59.853C332.538 60.1537 332.458 60.524 332.458 60.964C332.458 61.6167 332.623 62.1227 332.953 62.482C333.29 62.834 333.712 63.01 334.218 63.01ZM341.144 58.962H340.022V64H338.757V58.962H338.042V57.939H338.757V57.51C338.757 56.8133 338.941 56.3073 339.307 55.992C339.681 55.6693 340.264 55.508 341.056 55.508V56.553C340.675 56.553 340.407 56.6263 340.253 56.773C340.099 56.9123 340.022 57.158 340.022 57.51V57.939H341.144V58.962ZM342.894 57.136C342.666 57.136 342.476 57.059 342.322 56.905C342.168 56.751 342.091 56.5603 342.091 56.333C342.091 56.1057 342.168 55.915 342.322 55.761C342.476 55.607 342.666 55.53 342.894 55.53C343.114 55.53 343.301 55.607 343.455 55.761C343.609 55.915 343.686 56.1057 343.686 56.333C343.686 56.5603 343.609 56.751 343.455 56.905C343.301 57.059 343.114 57.136 342.894 57.136ZM343.51 57.939V64H342.256V57.939H343.51ZM346.41 55.86V64H345.156V55.86H346.41ZM353.611 60.821C353.611 61.0483 353.597 61.2537 353.567 61.437H348.936C348.973 61.921 349.153 62.3097 349.475 62.603C349.798 62.8963 350.194 63.043 350.663 63.043C351.338 63.043 351.815 62.7607 352.093 62.196H353.446C353.263 62.7533 352.929 63.2117 352.445 63.571C351.969 63.923 351.375 64.099 350.663 64.099C350.084 64.099 349.563 63.9707 349.101 63.714C348.647 63.45 348.287 63.0833 348.023 62.614C347.767 62.1373 347.638 61.5873 347.638 60.964C347.638 60.3407 347.763 59.7943 348.012 59.325C348.269 58.8483 348.625 58.4817 349.079 58.225C349.541 57.9683 350.069 57.84 350.663 57.84C351.235 57.84 351.745 57.9647 352.192 58.214C352.64 58.4633 352.988 58.8153 353.237 59.27C353.487 59.7173 353.611 60.2343 353.611 60.821ZM352.302 60.425C352.295 59.963 352.13 59.5927 351.807 59.314C351.485 59.0353 351.085 58.896 350.608 58.896C350.176 58.896 349.805 59.0353 349.497 59.314C349.189 59.5853 349.006 59.9557 348.947 60.425H352.302Z" fill="black" fill-opacity="0.8"/>
<path opacity="0.9" d="M246.877 56.355V64H245.623V58.764L243.291 64H242.422L240.079 58.764V64H238.825V56.355H240.178L242.862 62.35L245.535 56.355H246.877ZM254.08 60.821C254.08 61.0483 254.066 61.2537 254.036 61.437H249.405C249.442 61.921 249.622 62.3097 249.944 62.603C250.267 62.8963 250.663 63.043 251.132 63.043C251.807 63.043 252.284 62.7607 252.562 62.196H253.915C253.732 62.7533 253.398 63.2117 252.914 63.571C252.438 63.923 251.844 64.099 251.132 64.099C250.553 64.099 250.032 63.9707 249.57 63.714C249.116 63.45 248.756 63.0833 248.492 62.614C248.236 62.1373 248.107 61.5873 248.107 60.964C248.107 60.3407 248.232 59.7943 248.481 59.325C248.738 58.8483 249.094 58.4817 249.548 58.225C250.01 57.9683 250.538 57.84 251.132 57.84C251.704 57.84 252.214 57.9647 252.661 58.214C253.109 58.4633 253.457 58.8153 253.706 59.27C253.956 59.7173 254.08 60.2343 254.08 60.821ZM252.771 60.425C252.764 59.963 252.599 59.5927 252.276 59.314C251.954 59.0353 251.554 58.896 251.077 58.896C250.645 58.896 250.274 59.0353 249.966 59.314C249.658 59.5853 249.475 59.9557 249.416 60.425H252.771ZM257.514 64.099C257.038 64.099 256.609 64.0147 256.227 63.846C255.853 63.67 255.556 63.4353 255.336 63.142C255.116 62.8413 254.999 62.5077 254.984 62.141H256.282C256.304 62.3977 256.425 62.614 256.645 62.79C256.873 62.9587 257.155 63.043 257.492 63.043C257.844 63.043 258.116 62.977 258.306 62.845C258.504 62.7057 258.603 62.5297 258.603 62.317C258.603 62.0897 258.493 61.921 258.273 61.811C258.061 61.701 257.72 61.58 257.25 61.448C256.796 61.3233 256.425 61.2023 256.139 61.085C255.853 60.9677 255.604 60.788 255.391 60.546C255.186 60.304 255.083 59.985 255.083 59.589C255.083 59.2663 255.179 58.973 255.369 58.709C255.56 58.4377 255.831 58.225 256.183 58.071C256.543 57.917 256.953 57.84 257.415 57.84C258.105 57.84 258.658 58.016 259.076 58.368C259.502 58.7127 259.729 59.1857 259.758 59.787H258.504C258.482 59.5157 258.372 59.2993 258.174 59.138C257.976 58.9767 257.709 58.896 257.371 58.896C257.041 58.896 256.788 58.9583 256.612 59.083C256.436 59.2077 256.348 59.3727 256.348 59.578C256.348 59.7393 256.407 59.875 256.524 59.985C256.642 60.095 256.785 60.183 256.953 60.249C257.122 60.3077 257.371 60.3847 257.701 60.48C258.141 60.5973 258.501 60.7183 258.779 60.843C259.065 60.9603 259.311 61.1363 259.516 61.371C259.722 61.6057 259.828 61.9173 259.835 62.306C259.835 62.6507 259.74 62.9587 259.549 63.23C259.359 63.5013 259.087 63.714 258.735 63.868C258.391 64.022 257.984 64.099 257.514 64.099ZM263.39 64.099C262.914 64.099 262.485 64.0147 262.103 63.846C261.729 63.67 261.432 63.4353 261.212 63.142C260.992 62.8413 260.875 62.5077 260.86 62.141H262.158C262.18 62.3977 262.301 62.614 262.521 62.79C262.749 62.9587 263.031 63.043 263.368 63.043C263.72 63.043 263.992 62.977 264.182 62.845C264.38 62.7057 264.479 62.5297 264.479 62.317C264.479 62.0897 264.369 61.921 264.149 61.811C263.937 61.701 263.596 61.58 263.126 61.448C262.672 61.3233 262.301 61.2023 262.015 61.085C261.729 60.9677 261.48 60.788 261.267 60.546C261.062 60.304 260.959 59.985 260.959 59.589C260.959 59.2663 261.055 58.973 261.245 58.709C261.436 58.4377 261.707 58.225 262.059 58.071C262.419 57.917 262.829 57.84 263.291 57.84C263.981 57.84 264.534 58.016 264.952 58.368C265.378 58.7127 265.605 59.1857 265.634 59.787H264.38C264.358 59.5157 264.248 59.2993 264.05 59.138C263.852 58.9767 263.585 58.896 263.247 58.896C262.917 58.896 262.664 58.9583 262.488 59.083C262.312 59.2077 262.224 59.3727 262.224 59.578C262.224 59.7393 262.283 59.875 262.4 59.985C262.518 60.095 262.661 60.183 262.829 60.249C262.998 60.3077 263.247 60.3847 263.577 60.48C264.017 60.5973 264.377 60.7183 264.655 60.843C264.941 60.9603 265.187 61.1363 265.392 61.371C265.598 61.6057 265.704 61.9173 265.711 62.306C265.711 62.6507 265.616 62.9587 265.425 63.23C265.235 63.5013 264.963 63.714 264.611 63.868C264.267 64.022 263.86 64.099 263.39 64.099ZM266.648 60.942C266.648 60.3333 266.773 59.7943 267.022 59.325C267.279 58.8557 267.624 58.4927 268.056 58.236C268.496 57.972 268.98 57.84 269.508 57.84C269.985 57.84 270.399 57.9353 270.751 58.126C271.111 58.3093 271.397 58.5403 271.609 58.819V57.939H272.874V64H271.609V63.098C271.397 63.384 271.107 63.6223 270.74 63.813C270.374 64.0037 269.956 64.099 269.486 64.099C268.966 64.099 268.489 63.967 268.056 63.703C267.624 63.4317 267.279 63.0577 267.022 62.581C266.773 62.097 266.648 61.5507 266.648 60.942ZM271.609 60.964C271.609 60.546 271.521 60.183 271.345 59.875C271.177 59.567 270.953 59.3323 270.674 59.171C270.396 59.0097 270.095 58.929 269.772 58.929C269.45 58.929 269.149 59.0097 268.87 59.171C268.592 59.325 268.364 59.556 268.188 59.864C268.02 60.1647 267.935 60.524 267.935 60.942C267.935 61.36 268.02 61.7267 268.188 62.042C268.364 62.3573 268.592 62.5993 268.87 62.768C269.156 62.9293 269.457 63.01 269.772 63.01C270.095 63.01 270.396 62.9293 270.674 62.768C270.953 62.6067 271.177 62.372 271.345 62.064C271.521 61.7487 271.609 61.382 271.609 60.964ZM276.963 57.84C277.433 57.84 277.847 57.9353 278.206 58.126C278.573 58.3093 278.859 58.5403 279.064 58.819V57.939H280.329V64.099C280.329 64.6563 280.212 65.1513 279.977 65.584C279.743 66.024 279.402 66.3687 278.954 66.618C278.514 66.8673 277.986 66.992 277.37 66.992C276.549 66.992 275.867 66.7977 275.324 66.409C274.782 66.0277 274.474 65.507 274.4 64.847H275.643C275.739 65.1623 275.94 65.4153 276.248 65.606C276.564 65.804 276.938 65.903 277.37 65.903C277.876 65.903 278.283 65.749 278.591 65.441C278.907 65.133 279.064 64.6857 279.064 64.099V63.087C278.852 63.373 278.562 63.615 278.195 63.813C277.836 64.0037 277.425 64.099 276.963 64.099C276.435 64.099 275.951 63.967 275.511 63.703C275.079 63.4317 274.734 63.0577 274.477 62.581C274.228 62.097 274.103 61.5507 274.103 60.942C274.103 60.3333 274.228 59.7943 274.477 59.325C274.734 58.8557 275.079 58.4927 275.511 58.236C275.951 57.972 276.435 57.84 276.963 57.84ZM279.064 60.964C279.064 60.546 278.976 60.183 278.8 59.875C278.632 59.567 278.408 59.3323 278.129 59.171C277.851 59.0097 277.55 58.929 277.227 58.929C276.905 58.929 276.604 59.0097 276.325 59.171C276.047 59.325 275.819 59.556 275.643 59.864C275.475 60.1647 275.39 60.524 275.39 60.942C275.39 61.36 275.475 61.7267 275.643 62.042C275.819 62.3573 276.047 62.5993 276.325 62.768C276.611 62.9293 276.912 63.01 277.227 63.01C277.55 63.01 277.851 62.9293 278.129 62.768C278.408 62.6067 278.632 62.372 278.8 62.064C278.976 61.7487 279.064 61.382 279.064 60.964ZM287.531 60.821C287.531 61.0483 287.517 61.2537 287.487 61.437H282.856C282.893 61.921 283.073 62.3097 283.395 62.603C283.718 62.8963 284.114 63.043 284.583 63.043C285.258 63.043 285.735 62.7607 286.013 62.196H287.366C287.183 62.7533 286.849 63.2117 286.365 63.571C285.889 63.923 285.295 64.099 284.583 64.099C284.004 64.099 283.483 63.9707 283.021 63.714C282.567 63.45 282.207 63.0833 281.943 62.614C281.687 62.1373 281.558 61.5873 281.558 60.964C281.558 60.3407 281.683 59.7943 281.932 59.325C282.189 58.8483 282.545 58.4817 282.999 58.225C283.461 57.9683 283.989 57.84 284.583 57.84C285.155 57.84 285.665 57.9647 286.112 58.214C286.56 58.4633 286.908 58.8153 287.157 59.27C287.407 59.7173 287.531 60.2343 287.531 60.821ZM286.222 60.425C286.215 59.963 286.05 59.5927 285.727 59.314C285.405 59.0353 285.005 58.896 284.528 58.896C284.096 58.896 283.725 59.0353 283.417 59.314C283.109 59.5853 282.926 59.9557 282.867 60.425H286.222Z" fill="black" fill-opacity="0.8"/>
<g opacity="0.9">
<path d="M113.92 26.2601L120.43 29.7701C121.19 30.1801 121.19 31.3501 120.43 31.7601L113.92 35.2701C113.34 35.5801 112.66 35.5801 112.08 35.2701L105.57 31.7601C104.81 31.3501 104.81 30.1801 105.57 29.7701L112.08 26.2601C112.66 25.9501 113.34 25.9501 113.92 26.2601Z" stroke="#292D32" stroke-width="1.5" stroke-linecap="round" stroke-linejoin="round"/>
<path d="M104.61 34.1299L110.66 37.1599C111.41 37.5399 111.89 38.3099 111.89 39.1499V44.8699C111.89 45.6999 111.02 46.2299 110.28 45.8599L104.23 42.8299C103.48 42.4499 103 41.6799 103 40.8399V35.1199C103 34.2899 103.87 33.7599 104.61 34.1299Z" stroke="#292D32" stroke-width="1.5" stroke-linecap="round" stroke-linejoin="round"/>
<path d="M121.39 34.1299L115.34 37.1599C114.59 37.5399 114.11 38.3099 114.11 39.1499V44.8699C114.11 45.6999 114.98 46.2299 115.72 45.8599L121.77 42.8299C122.52 42.4499 123 41.6799 123 40.8399V35.1199C123 34.2899 122.13 33.7599 121.39 34.1299Z" stroke="#292D32" stroke-width="1.5" stroke-linecap="round" stroke-linejoin="round"/>
</g>
<g opacity="0.9">
<path d="M338 36C340.761 36 343 33.7614 343 31C343 28.2386 340.761 26 338 26C335.239 26 333 28.2386 333 31C333 33.7614 335.239 36 338 36Z" stroke="#292D32" stroke-width="1.5" stroke-linecap="round" stroke-linejoin="round"/>
<path d="M346.59 46C346.59 42.13 342.74 39 338 39C333.26 39 329.41 42.13 329.41 46" stroke="#292D32" stroke-width="1.5" stroke-linecap="round" stroke-linejoin="round"/>
</g>
<g opacity="0.9">
<path d="M259.5 43H259C255 43 253 42 253 37V32C253 28 255 26 259 26H267C271 26 273 28 273 32V37C273 41 271 43 267 43H266.5C266.19 43 265.89 43.15 265.7 43.4L264.2 45.4C263.54 46.28 262.46 46.28 261.8 45.4L260.3 43.4C260.14 43.18 259.77 43 259.5 43Z" stroke="#292D32" stroke-width="1.5" stroke-miterlimit="10" stroke-linecap="round" stroke-linejoin="round"/>
<path d="M258 32H268" stroke="#292D32" stroke-width="1.5" stroke-linecap="round" stroke-linejoin="round"/>
<path d="M258 37H264" stroke="#292D32" stroke-width="1.5" stroke-linecap="round" stroke-linejoin="round"/>
</g>
<rect x="160" width="56" height="56" rx="12" fill="#29B24E"/>
<g clip-path="url(#clip0_3_2398)">
<path d="M177 28H199" stroke="white" stroke-width="2" stroke-linecap="round" stroke-linejoin="round"/>
<path d="M188 17V39" stroke="white" stroke-width="2" stroke-linecap="round" stroke-linejoin="round"/>
</g>
<defs>
<filter id="filter0_d_3_2398" x="-3" y="10" width="381" height="78" filterUnits="userSpaceOnUse" color-interpolation-filters="sRGB">
<feFlood flood-opacity="0" result="BackgroundImageFix"/>
<feColorMatrix in="SourceAlpha" type="matrix" values="0 0 0 0 0 0 0 0 0 0 0 0 0 0 0 0 0 0 127 0" result="hardAlpha"/>
<feOffset dy="1"/>
<feGaussianBlur stdDeviation="1.5"/>
<feComposite in2="hardAlpha" operator="out"/>
<feColorMatrix type="matrix" values="0 0 0 0 0 0 0 0 0 0 0 0 0 0 0 0 0 0 0.25 0"/>
<feBlend mode="normal" in2="BackgroundImageFix" result="effect1_dropShadow_3_2398"/>
<feBlend mode="normal" in="SourceGraphic" in2="effect1_dropShadow_3_2398" result="shape"/>
</filter>
<clipPath id="clip0_3_2398">
<rect width="32" height="32" fill="white" transform="translate(172 12)"/>
</clipPath>
</defs>
</svg>
